# xmcd
#
# Track frame offsets: 
#        150
#        14805
#        32931
#        44524
#        68811
#        87981
#        100850
#        125596
#        138943
#        158681
#        177388
#
# Disc length: 2585 seconds
#
# Revision: 0
# Processed by: cddbd v1.5.2PL0 Copyright (c) Steve Scherf et al.
# Submitted via: ExactAudioCopyFreeDBPlugin 1.0
#
DISCID=980a170b
DTITLE=Marco Pandolfi - No Dog In This Hunt
DYEAR=2015
DGENRE=Blues
TTITLE0=And That Lovin'
TTITLE1=Three Shots
TTITLE2=Early In The Morning
TTITLE3=Up The Line
TTITLE4=No Dog In This Hunt
TTITLE5=You Gotta Find
TTITLE6=Last Night
TTITLE7=Got Love If You Want It
TTITLE8=Rosario
TTITLE9=I'm a Looser
TTITLE10=Leaking Roof
EXTD=
EXTT0=
EXTT1=
EXTT2=
EXTT3=
EXTT4=
EXTT5=
EXTT6=
EXTT7=
EXTT8=
EXTT9=
EXTT10=
PLAYORDER=
